<svg width="200" height="60" viewBox="0 0 200 60" fill="none" xmlns="http://www.w3.org/2000/svg">
  <!-- Eagle Icon -->
  <defs>
    <linearGradient id="logoGradient" x1="0%" y1="0%" x2="100%" y2="100%">
      <stop offset="0%" style="stop-color:#8b5cf6;stop-opacity:1" />
      <stop offset="100%" style="stop-color:#06b6d4;stop-opacity:1" />
    </linearGradient>
  </defs>
  
  <!-- Eagle Symbol -->
  <path d="M30 10 L40 20 L35 25 L40 30 L30 40 L20 30 L25 25 L20 20 Z" fill="url(#logoGradient)"/>
  <path d="M30 15 L32 18 L30 20 L28 18 Z" fill="#ffffff"/>
  <circle cx="30" cy="22" r="1.5" fill="#06b6d4"/>
  
  <!-- Wings -->
  <path d="M20 25 Q15 20 10 22 Q8 24 10 26 Q15 28 20 25" fill="url(#logoGradient)" opacity="0.8"/>
  <path d="M40 25 Q45 20 50 22 Q52 24 50 26 Q45 28 40 25" fill="url(#logoGradient)" opacity="0.8"/>
  
  <!-- Text -->
  <text x="60" y="28" font-family="Arial, sans-serif" font-size="20" font-weight="bold" fill="#e2e8f0">US Aura</text>
  <text x="60" y="45" font-family="Arial, sans-serif" font-size="10" fill="#8b5cf6" letter-spacing="1">SOLUTIONS</text>
</svg>
